<?xml version="1.0" encoding="utf-8"?>
<!-- Generator: Adobe Illustrator 26.0.2, SVG Export Plug-In . SVG Version: 6.00 Build 0)  -->
<svg version="1.1" id="Layer_1" xmlns="http://www.w3.org/2000/svg" xmlns:xlink="http://www.w3.org/1999/xlink" x="0px" y="0px"
	 viewBox="0 0 566.4 642.2" style="enable-background:new 0 0 566.4 642.2;" xml:space="preserve">
<style type="text/css">
	.st0{fill:#7BB9CA;}
	.st1{fill:#001528;}
	.st2{fill:#A5ADB4;}
</style>
<g id="pmCkkd.tif">
	<path class="st0" d="M0,475.7V155.1c-0.1-3.1,1.6-5.4,3-7.9c0.3-0.6,0.8-1,1.4-1.4c10-6,20.8-10.8,31.1-16.4
		c10.4-5.3,20.7-10.7,31.2-16c37-19.1,74-38.2,111-57.3c25.4-13.1,50.7-26,76.1-39.1c7.8-3.9,15.6-8.2,23.5-12
		c3.8-1.9,7.5-4.3,11.8-5h7.5c4.5,0.6,7.9,3.4,11.6,5.6c4.5,2.6,9,5.4,13.5,8.1c22.1,13.5,44.2,26.9,66.5,40.2
		c56.8,34.6,113.7,68.8,170.5,103.4c0.5,0.3,1,0.5,1.5,0.6c2.9,0.8,4.8,3.5,4.8,6.4c-0.3,108.1,1.5,216.3,1.1,324.4
		c-0.1,0.8-0.4,1.7-0.9,2.4c-1.8,4.7-5.9,6.9-10,8.9c-4.7,2.3-9.3,4.7-13.9,7c-23.8,12-47.5,24.1-71.3,36.2
		c-41.3,21.1-82.9,41.8-124.1,62.9c-22.8,11.7-45.9,22.9-68.5,34.8c-3.1,1.4-6.3,1.6-9.2-0.4c-7.9-5-16.1-9.4-24.1-14.3
		c-23-13.4-45.9-26.9-68.9-40.4c-33.7-19.9-67.5-39.5-101.3-59.4c-16.1-9.4-32.1-18.9-48.2-28.4c-5.3-3.1-10.5-6.2-15.8-9.3
		c-5.5-3.1-9.3-6.1-9.7-13C0.1,475.8,0.1,475.8,0,475.7z"/>
	<path class="st1" d="M296.2,535.8c0-68.6,0-139.6,0-208c0.3-4.4,16.1-9,20.1-12.1c10-5.3,20.2-10.5,30.3-15.7
		c60.6-31.1,121-62.8,181.8-93.3c0.3,81.6,0,163.4,0,245.1c-0.4,6.3,1.7,13.9-1.1,19.5c-13.4,6.8-26.7,13.8-40,20.7
		c-28.1,14.1-55.9,28.9-84,43.2c-35.3,17.7-70.1,36.5-105.5,54.1c-1.6,0.8-1.6,0.8-1.6-1.1L296.2,535.8L296.2,535.8z"/>
	<path class="st1" d="M252,457.2c-0.2,43.9,0.5,87.9-0.2,131.7c-59.2-33.8-117.4-70.2-176.4-104.5c-12.3-7.3-24.4-15-36.8-22.1
		c-2.3-1.2-2.8-2.7-2.8-5.1c0-65.6,0.2-172.9,0.1-239.7c0.2-6.7-0.5-13.6,0.4-20.3c2-0.9,4.4,2.3,6.4,3c29.2,17.2,58,34.9,87.2,52.1
		c35.4,21.1,71,41.7,106.2,63.2c5.1,3.8,12.2,5.6,16.1,10.3C252.3,327.4,251.8,455.8,252,457.2z"/>
	<path class="st1" d="M507.1,167.4c-61,32.2-122.8,63.2-184.1,95c-15.9,8-31.7,16.4-47.6,24.4c-13.8-6.1-27.1-16-40.6-23.5
		C186.3,234.8,138,205.7,89.6,177c-10-5.8-19.6-11.7-29.5-17.6c-0.7-0.4-1.6-0.9-0.1-1.6c13.3-6.7,26.3-13.9,39.7-20.5
		c45.2-23.5,90.6-46.5,135.7-70.1c17.7-8.9,35.3-18.1,53-27.1c2.3-4.8,24.9,13.2,30.1,14.9C381.3,92.4,444.3,129.9,507.1,167.4z"/>
	<path class="st2" d="M463.7,358.2c-0.1,1-0.1,2.1,0,3.1c0.3,2-1.2,2.9-2.4,3.5c-3,1.5-6,3-9,4.5c-1.9,1-3.8,2-5.7,3
		c-2.1,1-4.3,1.9-6.3,3c-2.2,1.3-4.1,0.5-5.7-0.8c-2.5-2-4.8-4.3-7.1-6.4c-1.9-1.7-3.7-3.4-5.7-5c-0.6-0.3-1.3-0.4-2-0.2
		c-2,0.6-3.4,2.1-4.5,3.8c-3.4,4.9-6.8,9.9-10.1,14.8c-3,4.4-6.1,8.8-8.9,13.3c-1,1.7-1.2,3.7-0.5,5.5c0.2,1.1,1.3,1.8,2.4,1.5
		c0.1,0,0.1,0,0.2,0c5.7-1.2,11.4-2.5,17-3.8c1.8-0.4,3.6-0.8,5.5-1c2.1-0.3,4.3,2.4,3.9,4.7c-0.9,4.6-1.9,9.1-2.9,13.7
		s-2,9.2-3,13.8c-0.9,4.1-1.8,8.2-2.6,12.3c-0.4,2.1-0.7,4.2-1,6.3c-0.3,1.6-1.7,1.5-2.8,1.9c-1.3,0.4-2.6,0.7-4,0.8
		c-0.8,0.1-1.6-0.1-2.3-0.5c-0.4-0.3-0.3-1.3-0.2-1.9c0.5-2.6,1.1-5.2,1.6-7.8c0.7-3.4,1.3-6.9,2-10.3c1.1-5.5,2.3-11,3.5-16.4
		c0.1-0.4,0.2-0.8,0.3-1.2c0.4-1.6,0-2-1.7-1.6c-3.5,0.8-7,1.8-10.5,2.5c-2.3,0.5-4.6,0.7-7,0.7c-3.2,0-6-2-7-5
		c-1.8-4.6-1.6-9.3-0.1-14.1c1.1-3.2,2.6-6.3,4.5-9.2c3-4.5,6.3-8.8,9.4-13.2c2-3,3.9-6,5.9-9c2.8-4,5.5-8,9.7-10.8
		c3.4-2.3,9-2.7,12.3-0.3c1.6,1.3,3.1,2.7,4.5,4.1c2.1,1.9,4.2,3.7,6.2,5.6c1.5,1.5,3,0.5,4.3-0.1c2.9-1.4,5.6-3.1,8.5-4.6
		s5.9-3,8.9-4.5c1.5-0.8,2.5-0.2,2.5,1.5C463.7,355.7,463.7,356.9,463.7,358.2z"/>
	<path class="st2" d="M395.4,444.2c0.1,7.2-1.4,14.3-4.2,20.9c-1.9,4.6-4.2,9-7.1,13.1c-4.5,6.4-9.8,11.9-16.6,15.8
		c-5.2,2.9-10.8,4.4-16.8,2.9c-3.3-0.9-6.2-2.7-8.4-5.3c-2.3-2.7-3.9-5.8-4.6-9.3c-0.2-0.9-0.4-1.8-0.4-2.7c0-3.5-0.1-7,0-10.5
		c0.1-1.9,0.4-3.7,0.9-5.5c1-3.5,2.1-6.9,3.4-10.2c1.1-2.9,2.5-5.6,4.1-8.2c1.9-3,4-5.9,6.2-8.6c3.3-4,7.1-7.4,11.5-10.1
		c3.1-2,6.7-3.4,10.4-4c3.6-0.8,7.3-0.3,10.6,1.3c4.5,2.4,7.9,5.8,9.5,10.9C394.9,437.7,395.4,440.9,395.4,444.2z"/>
	<path class="st2" d="M443.1,452c-5.7,0.4-10-2.1-13.5-5.9c-2.7-3-4-6.9-4.7-10.8c-0.5-2.2-0.7-4.4-0.6-6.7c0.4-4.1,1.1-8.2,2-12.2
		c1-4.5,2.8-8.9,5.2-12.8c1.8-2.9,3.3-6,5.3-8.8s4.4-4.9,6.6-7.4c2.5-2.7,5.5-5,8.7-6.8c3-1.8,6.3-3,9.8-3.4
		c3.2-0.5,6.4-0.2,9.4,1.1c4.5,2,8,5.7,9.8,10.3c1.1,2.8,1.7,5.7,1.6,8.7c-0.1,4.2-0.3,8.5-0.7,12.7c-0.2,1.6-0.7,3.2-1.3,4.7
		c-1.3,3.5-2.6,6.9-4.2,10.2c-2.3,4.6-5.2,8.9-8.5,12.8c-3.2,3.8-6.9,7.2-11.1,9.9C452.7,450.2,448.2,452.5,443.1,452z"/>
	<path class="st2" d="M464,323.6c-0.5,2-0.9,4.2-1.6,6.3c-0.8,2.5-1.7,4.9-2.8,7.2c-0.8,1.5-1.7,2.9-2.8,4.2
		c-2.5,3.2-5.7,5.6-9.4,7.1c-3.9,1.4-8.2,0.1-10.8-3.1c-3-4-2.6-8.3-1.8-12.6c1.1-6,4.2-11,8.4-15.5c2-2.2,4.5-3.9,7.2-5
		c4.7-2,10.1,0.2,12,4.9c0.1,0.2,0.1,0.4,0.2,0.5C463.2,319.6,463.7,321.6,464,323.6z"/>
	<path class="st2" d="M198.9,428.3c-4.3-0.5-8.6-0.9-12.9-1.4c-1.7-0.2-3.4-0.2-5.1-0.4c-2.8-0.3-4.4-2.4-6.1-4.2
		c-2-2.2-3.9-4.5-5.9-6.8c-3.4-3.9-6.7-7.8-10.1-11.7c-2.5-2.8-5-5.6-7.4-8.4c-2.6-3-5.2-6.1-7.8-9.1l-0.3-0.4c-2-2-2.1-2.2-3.4,0.6
		c-1,2.3-2.4,4.5-3.3,6.8c-1.1,2.8-2.1,5.6-3,8.5c-1,2.7-1.7,5.5-2.2,8.4c-0.4,2.8-2,4.4-3.9,6.2c-3.1,3-6,6.2-9.1,9.3
		c-2.3,2.3-4.7,4.6-7.1,6.9c-1.9,1.8-3.8,3.7-5.8,5.4c-1.4,1.2-3.7,0.8-5.2-0.3c-1.9-1.4-3.9-2.7-5.9-4s-4-2.9-6-4.3
		c-3.1-2.2-6.2-4.5-9.3-6.7c-1.1-0.6-2.1-1.3-3.1-2.1c-1.3-1.3-0.9-3.1-0.8-4.8c0.1-1.9,0.5-3.8,0.6-5.7c0.1-2.1,1.6-3.2,3.4-2
		c2.1,1.4,4.1,3,6.2,4.5c2.9,2,5.8,3.9,8.7,5.9c1.5,1,2.9,2.1,4.3,3.2c1,0.8,1.6,1.4,2.8-0.1c1.9-2.1,4-4.1,6.1-6
		c1.3-1.3,2.4-2.6,3.7-3.9s2.6-2.5,3.9-3.8c1.9-1.8,3.7-3.7,5.4-5.7c0.7-0.9,0.6-2.4,1-3.6c1.5-4.6,2.8-9.2,4.5-13.7
		c1.4-3.8,3.2-7.5,4.9-11.2c0.8-1.7-0.4-2.6-1.2-3.6c-1.9-2.4-3.9-4.6-6-6.9c-1.4-1.5-2.9-3-4.4-4.4c-0.4-0.3-1-0.3-1.4-0.2
		c-3.9,1.8-7.7,3.7-11.5,5.6c-2,1-4,1.9-6,2.8c-0.9,0.4-1.5,0.2-2-0.8c-1.6-3.4-3.2-6.8-4.9-10.2c-0.7-1.4-0.4-2.1,1-2.8
		c2.4-1.2,4.7-2.5,7.1-3.6c2.8-1.3,5.6-2.6,8.4-3.9c1.8-0.8,3.6-1.7,5.4-2.6c2.1-1.1,3.9-0.5,5.4,0.8s2.9,3.1,4.3,4.7
		c1.9,2.1,3.8,4.1,5.7,6.2c0.8,0.9,1.5,1.7,2.3,2.6c4.1,4.9,8.2,9.8,12.4,14.6s8.7,9.8,13.1,14.8c2.3,2.6,4.4,5.3,6.7,7.9
		c3,3.4,6,6.7,9,10c1.6,1.7,3.2,3.4,4.6,5.3c1.2,1.7,3,1.8,4.7,2c4.7,0.4,9.4,0.6,14.1,1c1.8,0.1,2.5,1.3,2.9,2.9
		c0.6,2.6,1.4,5.2,2,7.9c0.3,0.9,0.4,1.9,0.2,2.8c-0.2,0.6-1.1,1.1-1.8,1.4c-0.6,0.1-1.2,0.1-1.8,0L198.9,428.3z"/>
	<path class="st2" d="M178.2,362.5c0.2,2.9-0.5,5.9-1.9,8.4c-1.6,2.8-4.6,4.6-7.8,4.8c-2.6,0.2-5.2-0.6-7.3-2.1
		c-4-2.9-7.4-6.6-9.8-10.9c-2-3.4-3.5-7.1-4.4-10.9c-0.7-3.1-0.3-6.4-0.4-9.6c0-2.2,0.7-4.3,2-6.1c2.2-3.2,7.6-5.7,11.7-3.6
		c3.9,1.9,7.3,4.7,10,8.1c2.6,3.4,4.7,7.3,6.1,11.4c1.2,3.3,1.5,6.9,2.2,10.4L178.2,362.5z"/>
	<path class="st2" d="M140.4,419.4c0.6-0.9,1.1-2.6,2.3-3.3c1.7-1,3.8-0.8,5.3,0.5c3.3,2.5,6.8,4.6,10.2,7c5,3.5,10.1,7,15,10.8
		c2,1.5,3.5,3.7,5.1,5.5c2,2.2,3.9,4.4,5.9,6.7s3.6,4.5,5.4,6.7c1.6,2,3.3,3.8,4.9,5.8c2.2,2.7,4.4,5.4,6.7,8
		c0.9,0.8,1.1,2.2,0.4,3.2c-1,1.8-1.8,3.8-2.7,5.7c-0.1,0.3-0.4,0.5-0.6,0.7c-1.9,1.1-1.9,1-3.4-0.9c-2.5-3.1-5.1-6-7.7-9
		c-1.9-2.3-3.7-4.6-5.6-6.9c-0.9-1-1.8-2-2.7-3.1c-2.8-3.3-5.5-6.6-8.4-9.9c-0.9-0.9-1.9-1.7-3-2.4c-3.2-2.3-6.5-4.5-9.7-6.8
		s-6.2-4.4-9.2-6.7c-1.8-1.2-3.5-2.5-5.1-3.9C141.2,425.3,140.9,422.7,140.4,419.4z"/>
	<path class="st2" d="M356.7,123.2c2.4,0.1,4.9,0.3,7.3,0.4s3,0.8,2.5,3.2c-0.2,1.7-0.4,3.3-0.4,5c0,1-0.4,1.3-1.3,1.3
		c-8.7,0-17.3,0-26,0c-4.2,0-8.4-0.2-12.6-0.3l-13.6-0.3l-16.4-0.4c-5.2-0.1-10.4-0.2-15.5-0.3c-2.7-0.1-5.4-0.4-8.1-0.3
		s-5.4,0.4-7.5,2.3c-1.5,1.5-2.8,3.2-4.1,5c-1.7,2.3-3.4,4.7-5.1,7.1l-5.2,7.2c-1.4,2-2.9,3.9-4.3,5.9c-1.2,1.7-2.5,3.3-3.5,5.1
		c-1.6,2.6-1.1,4.5,1.6,6.1c1.4,0.9,3.1,1.4,4.8,1.3c6.3,0,12.6,0.2,19,0.3c4.7,0.1,9.4,0.2,14.1,0.3c4.2,0.1,8.4,0.1,12.6,0.4
		c1.9,0.2,3.7,0.8,5.4,1.7c1.8,0.9,2.5,3.1,1.6,4.8c-0.2,0.3-0.4,0.6-0.6,0.8c-3.4,4.1-6.8,8.1-10.1,12.1c-2.5,3-5,6.1-7.5,9.1
		s-5.1,6.2-7.7,9.3c-0.9,1.1-2.3,1.8-3.8,1.7c-4.3-0.1-8.7-0.2-13-0.4c-0.5,0-1-0.2-1.3-0.6c-0.1-0.5,0-1,0.3-1.4
		c2.1-2.6,4.3-5.2,6.4-7.8c2.3-2.8,4.6-5.6,7-8.4c2.1-2.5,4.2-5,6.3-7.4c0.7-0.8,1.4-1.7,2.1-2.5s0.4-1.4-0.5-1.6
		c-0.7-0.2-1.4-0.3-2.2-0.4c-4.3,0-8.6,0-12.8,0c-6-0.1-12.1-0.1-18.1-0.4c-2.5-0.2-5-0.8-7.4-1.7c-2.5-0.7-4.9-1.8-7.1-3.3
		c-3.5-2.5-6.4-5.6-6.3-10.4c0-2.5,1.5-4.5,2.8-6.4c1.7-2.5,3.6-4.9,5.4-7.4c2.2-3,4.5-6,6.7-9s4.4-6.1,6.4-9.2s4.5-6,7.9-7.6
		c3.1-1.4,6.3-2.5,9.7-3.3c2.7-0.7,5.5-1,8.3-0.8c3.7,0.3,7.5,0.1,11.2,0.1c0.2,0,0.4,0,0.6-0.1c-0.2-0.2-0.3-0.4-0.5-0.5
		c-2.2-0.6-4.4-1-6.6-1.7c-4.1-1.3-7.8-3.3-10.5-6.7c-3.5-4.5-3.2-9.2,1.1-13.3s9.5-6.2,15.2-7.1c4.8-0.8,9.8-0.8,14.6,0.1
		c4.7,0.9,9.2,2.8,13.1,5.6c4.5,3.2,6.1,8.9,3.2,13.7c-1.5,2.6-4.1,4.3-6.8,5.8c-4,2.3-8.5,2.8-12.8,3.9c-0.3,0.1-0.6,0.2-0.8,0.3
		c0.3,0.2,0.6,0.3,0.9,0.3c4.4,0.1,8.7,0.3,13.1,0.3c10.8,0.1,21.6,0.2,32.5,0.3c5.1,0.1,10.1,0.2,15.2,0.3
		C355.8,122.9,356.2,122.8,356.7,123.2z"/>
	<path class="st1" d="M346.9,470.1c0-4.8,1-9.6,2.9-14c2-5,4.9-9.5,8.5-13.4c4-4.4,9.2-7.4,15.1-8.6c3.8-0.7,8.2,2.2,10,5.8
		c1.5,3,2.2,6.4,2.1,9.8c-0.1,3-0.6,5.9-1.5,8.7c-0.9,3.3-2.2,6.6-3.7,9.7c-1.4,2.4-3,4.6-4.8,6.7c-2.1,2.6-4.7,4.9-7.5,6.7
		c-4.3,2.9-9,4-14,2.8c-1.5-0.5-2.8-1.5-3.7-2.8C347.8,478.3,346.6,474.2,346.9,470.1z"/>
	<path class="st1" d="M434.2,426c0.5-7.2,1.7-13,4.8-18.2c1.6-3.1,3.5-6,5.7-8.8c2.4-3,5.3-5.4,8.6-7.3c3-1.7,6.4-2.6,9.9-2.5
		c3.1,0.1,5.9,1.8,7.4,4.5c2.6,4.4,2.7,9,2.3,13.9c-0.4,4.1-1.5,8.1-3.1,11.9c-1.6,3.9-3.9,7.4-6.8,10.5c-1.8,2.1-3.8,3.9-5.9,5.6
		c-3.2,2.3-6.8,4.2-10.9,4.2c-2.2,0.1-4.3-0.4-6.2-1.4c-1.7-1.3-3-3.1-3.8-5.1C435.3,430.9,434.7,428.5,434.2,426z"/>
	<path class="st1" d="M453.6,327.5c0.3,3.5-2.7,7.9-6.1,9.2c-1.4,0.5-2.7,0-3-1.4c-0.8-3.1,0.1-6.5,2.4-8.7c0.9-1,2.1-1.8,3.4-2.3
		c2.1-0.7,3.3,0.3,3.3,2.6L453.6,327.5z"/>
	<path class="st1" d="M166.9,357.8c-0.1,0.5-0.5,1.4-0.7,2.3c-0.3,1.3-1.4,1.1-2.1,0.8c-2.2-0.8-3.9-2.5-4.9-4.5
		c-0.8-1.7-1.4-3.5-1.7-5.4c-0.1-1.2,0.1-2.3,0.6-3.4c0.4-1,2.1-1.1,3.3-0.3C164.9,349.7,167,353.6,166.9,357.8z"/>
	<path class="st1" d="M290.1,111.8c-2.5,0.2-5.1-0.5-7.1-1.9c-1.6-1-2.6-3.4-1.5-4.6c1-1.2,2.3-2.2,3.7-2.8c3-1.1,6.3-1.2,9.3-0.2
		c1.3,0.4,2.6,1,3.7,1.9c1.4,1.1,1.6,3.1,0.5,4.4c-0.1,0.2-0.3,0.4-0.5,0.5C296,111.2,293,112.2,290.1,111.8z"/>
</g>
</svg>
